<svg width="49" height="49" viewBox="0 0 49 49" fill="none" xmlns="http://www.w3.org/2000/svg">
<path fill-rule="evenodd" clip-rule="evenodd" d="M24.25 2.92424C12.334 2.92424 2.67424 12.584 2.67424 24.5C2.67424 36.416 12.334 46.0758 24.25 46.0758C36.166 46.0758 45.8258 36.416 45.8258 24.5C45.8258 12.584 36.166 2.92424 24.25 2.92424ZM0.25 24.5C0.25 11.2451 10.9951 0.5 24.25 0.5C37.5049 0.5 48.25 11.2451 48.25 24.5C48.25 37.7549 37.5049 48.5 24.25 48.5C10.9951 48.5 0.25 37.7549 0.25 24.5Z" fill="#6558F5"/>
<path fill-rule="evenodd" clip-rule="evenodd" d="M35.2681 15.5181C35.7744 16.0243 35.7744 16.8451 35.2681 17.3513L21.4026 34.5686C20.889 35.0823 20.0562 35.0823 19.5425 34.5686L11.7785 26.8046C11.2723 26.2984 11.2723 25.4777 11.7785 24.9715C12.2847 24.4653 13.1055 24.4653 13.6117 24.9715L20.4726 31.8323L33.435 15.5181C33.9412 15.0119 34.7619 15.0119 35.2681 15.5181Z" fill="#6558F5"/>
</svg>
