<svg width="49" height="49" viewBox="0 0 49 49" fill="none" xmlns="http://www.w3.org/2000/svg">
<path fill-rule="evenodd" clip-rule="evenodd" d="M15.1012 46.764C15.0898 46.7589 15.0784 46.7538 15.0665 46.7493L15.0674 46.7478C6.37718 43.2903 0.250712 35.0852 0.25 25.5344C0.25 20.4391 1.95802 15.6131 5.1904 11.5786C5.58603 11.0863 6.32193 10.9923 6.83611 11.3706C7.35065 11.7481 7.44815 12.4529 7.05424 12.9452C4.13886 16.5832 2.59773 20.9371 2.59773 25.5343C2.59773 33.7089 7.57202 40.7909 14.7752 44.1601L21.2134 24.1285L19.6762 19.475L13.6024 22.6978C13.4252 22.7915 13.2295 22.8388 13.0327 22.8388C12.874 22.8388 12.7149 22.8075 12.5651 22.7459C12.231 22.607 11.9826 22.3271 11.894 21.9887L7.60118 5.59506C7.53713 5.35096 7.56132 5.09288 7.66843 4.86341L9.39776 1.16459C9.56074 0.815952 9.89771 0.570476 10.2923 0.512938C10.3154 0.509579 10.3386 0.509974 10.3619 0.510371C10.3764 0.510619 10.3909 0.510867 10.4055 0.510214C10.4116 0.509092 10.4169 0.507726 10.4222 0.506362C10.4346 0.503174 10.4469 0.5 10.4688 0.5L37.9984 0.500341C38.0169 0.500341 38.0276 0.503049 38.0384 0.505765C38.0438 0.507134 38.0493 0.508506 38.0557 0.509533C38.0708 0.51018 38.086 0.509893 38.1011 0.509606C38.1259 0.509137 38.1507 0.508667 38.1756 0.512257C38.5702 0.570139 38.9072 0.815271 39.0702 1.1639L40.7995 4.86369C40.9066 5.09384 40.9301 5.35122 40.8668 5.59534L36.574 21.9889C36.4854 22.3274 36.2377 22.6072 35.9029 22.7461C35.5684 22.884 35.1862 22.8673 34.8659 22.6978L28.8409 19.5005L27.3122 24.1256L33.8429 44.1014C40.9817 40.711 45.9019 33.6635 45.9019 25.535C45.9019 20.9398 44.3622 16.5876 41.4493 12.9502C41.0554 12.4579 41.1529 11.7531 41.6674 11.3756C42.1823 10.9977 42.9192 11.092 43.3131 11.5843C46.5431 15.618 48.25 20.4421 48.25 25.5357C48.25 34.988 42.2493 43.1224 33.7032 46.6411C33.6836 46.6517 33.6625 46.6602 33.6411 46.6688C33.6302 46.6732 33.6193 46.6776 33.6085 46.6823C33.5932 46.6884 33.5783 46.6942 33.563 46.7007C33.5519 46.7049 33.5412 46.7097 33.5304 46.7145C33.5127 46.7224 33.4949 46.7304 33.4754 46.7361C33.4723 46.7374 33.469 46.7379 33.4657 46.7384C33.4641 46.7386 33.4625 46.7388 33.4608 46.7391C30.6222 47.8719 27.5119 48.5 24.2503 48.5C21.0379 48.5 17.9723 47.8892 15.169 46.7885C15.1658 46.7874 15.1623 46.7874 15.1591 46.7864C15.1385 46.7807 15.1199 46.7724 15.1012 46.764ZM26.561 15.7237L34.6691 20.0257L38.4919 5.42707L37.6742 3.67745L34.7015 6.90806C34.6921 6.91842 34.6814 6.92705 34.6708 6.93565C34.6625 6.94232 34.6543 6.94898 34.6467 6.95641L26.561 15.7237ZM17.2602 7.28936L24.2343 14.8521L31.2094 7.28936H17.2602ZM33.2807 5.04363L35.3979 2.74754L13.0731 2.74788L15.1939 5.04397L33.2807 5.04363ZM10.7953 3.6763L9.9762 5.428L13.7993 20.0254L21.907 15.7233L10.7953 3.6763ZM26.7468 18.3908L24.2343 17.0575L21.7705 18.3646L23.2874 22.9564H25.2378L26.7468 18.3908ZM25.2349 25.2943H23.2942L16.9486 45.0391C19.2313 45.8238 21.6895 46.2545 24.2508 46.2545C26.8583 46.2545 29.3599 45.8112 31.6778 44.9982L25.2349 25.2943ZM34.9841 29.0178V31.5934L38.0004 33.1541L41.0176 31.5934V27.8946C41.0176 27.2746 41.5435 26.7714 42.1915 26.7714C42.8395 26.7714 43.3654 27.2746 43.3654 27.8946V32.2627C43.3654 32.6753 43.1295 33.0543 42.7498 33.2507L38.5588 35.4191C38.3851 35.5093 38.1926 35.5543 38.0005 35.5543C37.8083 35.5543 37.6165 35.5093 37.4422 35.4191L33.2518 33.2507C32.8721 33.0539 32.6362 32.675 32.6362 32.2627V27.8946C32.6362 27.2746 33.1622 26.7714 33.8102 26.7714H38.9523C39.6003 26.7714 40.1263 27.2746 40.1263 27.8946C40.1263 28.5146 39.6003 29.0178 38.9523 29.0178H34.9841Z" fill="#6558F5"/>
</svg>
