<svg width="48" height="48" viewBox="0 0 48 48" fill="none" xmlns="http://www.w3.org/2000/svg">
<path fill-rule="evenodd" clip-rule="evenodd" d="M24 2.42424C12.084 2.42424 2.42424 12.084 2.42424 24C2.42424 35.916 12.084 45.5758 24 45.5758C35.916 45.5758 45.5758 35.916 45.5758 24C45.5758 12.084 35.916 2.42424 24 2.42424ZM0 24C0 10.7451 10.7451 0 24 0C37.2549 0 48 10.7451 48 24C48 37.2549 37.2549 48 24 48C10.7451 48 0 37.2549 0 24ZM5.87842 24C5.87842 23.3306 6.4211 22.7879 7.09054 22.7879H40.9087C41.5782 22.7879 42.1208 23.3306 42.1208 24C42.1208 34.0028 34.0024 42.1212 23.9996 42.1212C13.9969 42.1212 5.87842 34.0028 5.87842 24ZM9.93302 30.9697C12.5019 36.1403 17.8384 39.697 23.9996 39.697C30.1608 39.697 35.4973 36.1403 38.0662 30.9697H9.93302ZM8.97186 28.5454C8.64897 27.4778 8.43684 26.3622 8.34885 25.2122H39.6504C39.5624 26.3622 39.3503 27.4778 39.0274 28.5454H8.97186ZM16.1201 15.1516C14.3655 15.1516 12.9081 16.609 12.9081 18.3636C12.9081 19.033 12.3654 19.5757 11.696 19.5757C11.0266 19.5757 10.4839 19.033 10.4839 18.3636C10.4839 15.2701 13.0266 12.7274 16.1201 12.7274C19.2136 12.7274 21.7564 15.2701 21.7564 18.3636C21.7564 19.033 21.2137 19.5757 20.5442 19.5757C19.8748 19.5757 19.3321 19.033 19.3321 18.3636C19.3321 16.609 17.8748 15.1516 16.1201 15.1516ZM28.6669 18.3636C28.6669 16.609 30.1243 15.1516 31.8789 15.1516C33.6335 15.1516 35.0909 16.609 35.0909 18.3636C35.0909 19.033 35.6336 19.5757 36.303 19.5757C36.9725 19.5757 37.5152 19.033 37.5152 18.3636C37.5152 15.2701 34.9724 12.7274 31.8789 12.7274C28.7854 12.7274 26.2427 15.2701 26.2427 18.3636C26.2427 19.033 26.7854 19.5757 27.4548 19.5757C28.1242 19.5757 28.6669 19.033 28.6669 18.3636Z" fill="#6558F5"/>
</svg>
