<svg width="133" height="122" viewBox="0 0 133 122" fill="none" xmlns="http://www.w3.org/2000/svg">
<ellipse cx="85.2006" cy="47.5263" rx="43.5" ry="43" transform="rotate(15 85.2006 47.5263)" fill="#FFCDCD"/>
<circle cx="35.0689" cy="78.6109" r="33" transform="rotate(15 35.0689 78.6109)" fill="#006CCF" fill-opacity="0.15"/>
<circle cx="83.8485" cy="109.454" r="10.2943" transform="rotate(15 83.8485 109.454)" fill="#18B76A" fill-opacity="0.15"/>
<g filter="url(#filter0_i_77_16560)">
<mask id="mask0_77_16560" style="mask-type:alpha" maskUnits="userSpaceOnUse" x="19" y="13" width="84" height="84">
<path d="M22.5459 16.8398L60.9288 16.8398L99.3117 16.8398V80.6056C99.3117 87.7853 93.4914 93.6056 86.3117 93.6056H35.5459C28.3662 93.6056 22.5459 87.7853 22.5459 80.6056L22.5459 16.8398Z" fill="#85E3FF" stroke="#010A13" stroke-width="6"/>
</mask>
<g mask="url(#mask0_77_16560)">
<path d="M21.0459 80.6054V41.5394L50.2414 25.7804C56.9115 22.1801 64.9461 22.1801 71.6162 25.7804L100.812 41.5394V80.6054C100.812 88.6136 94.3198 95.1054 86.3117 95.1054H35.5459C27.5378 95.1054 21.0459 88.6136 21.0459 80.6054Z" fill="#FFCB12" stroke="#010A13" stroke-width="3"/>
<path d="M68.4878 78.331H53.3696C41.4955 78.331 31.8696 68.7051 31.8696 56.831V37.3486C31.8696 25.4745 41.4955 15.8486 53.3696 15.8486L60.9287 15.8486H75.2429L89.9878 30.5935V56.831C89.9878 68.7051 80.3619 78.331 68.4878 78.331Z" fill="#010A13" fill-opacity="0.2" stroke="#010A13" stroke-width="5"/>
<path d="M77.035 26.1552L76.7085 13.8398L92.488 30.0492H81.0336C78.8658 30.0492 77.0925 28.3223 77.035 26.1552Z" fill="white"/>
<path d="M29.3696 20.8398C29.3696 16.9738 32.5036 13.8398 36.3696 13.8398L60.9287 13.8398L76.7082 13.8398L77.0348 26.1552C77.0922 28.3223 78.8655 30.0492 81.0334 30.0492H92.4878V57.3222C92.4878 70.577 81.7426 81.3222 68.4878 81.3222H53.3696C40.1148 81.3222 29.3696 70.577 29.3696 57.3222V20.8398Z" fill="white"/>
<path d="M30.8696 20.8398C30.8696 17.8023 33.3321 15.3398 36.3696 15.3398L60.9287 15.3398L75.2475 15.3398L75.5353 26.195C75.6143 29.1747 78.0526 31.5492 81.0334 31.5492H90.9878V57.3222C90.9878 69.7486 80.9142 79.8222 68.4878 79.8222H53.3696C40.9432 79.8222 30.8696 69.7486 30.8696 57.3222V20.8398Z" stroke="#010A13" stroke-width="3"/>
<path d="M37.4746 29.0668V27.4839H39.849V29.0668H37.4746Z" fill="#010A13"/>
<path d="M39.7771 29.0668V27.4839H42.1515V29.0668H39.7771Z" fill="#010A13"/>
<path d="M42.0795 29.0668V27.4839H44.4539V29.0668H42.0795Z" fill="#010A13"/>
<path d="M44.382 29.0668V27.4839H46.7564V29.0668H44.382Z" fill="#010A13"/>
<path d="M46.6845 29.0668V27.4839H49.0589V29.0668H46.6845Z" fill="#010A13"/>
<path d="M48.9869 29.0668V27.4839H51.3613V29.0668H48.9869Z" fill="#010A13"/>
<path d="M55.9087 29.0668V27.4839H58.2831V29.0668H55.9087Z" fill="#010A13"/>
<path d="M58.2111 29.0668V27.4839L60.5856 27.4839V29.0668H58.2111Z" fill="#010A13"/>
<path d="M65.1329 29.0668V27.4839H67.5073V29.0668H65.1329Z" fill="#010A13"/>
<path d="M67.4354 29.0668V27.4839H69.8098V29.0668H67.4354Z" fill="#010A13"/>
<path d="M69.7378 29.0668V27.4839H72.1123V29.0668H69.7378Z" fill="#010A13"/>
<path d="M37.4746 35.2067V33.6238H39.849V35.2067H37.4746Z" fill="#010A13"/>
<path d="M39.7771 35.2067V33.6238H42.1515V35.2067H39.7771Z" fill="#010A13"/>
<path d="M42.0795 35.2067V33.6238H44.4539V35.2067H42.0795Z" fill="#010A13"/>
<path d="M44.382 35.2067V33.6238H46.7564V35.2067H44.382Z" fill="#010A13"/>
<path d="M46.6845 35.2067V33.6238H49.0589V35.2067H46.6845Z" fill="#010A13"/>
<path d="M53.6062 35.2067V33.6238H55.9806V35.2067H53.6062Z" fill="#010A13"/>
<path d="M55.9087 35.2067V33.6238H58.2831V35.2067H55.9087Z" fill="#010A13"/>
<path d="M58.2111 35.2067V33.6238H60.5856V35.2067H58.2111Z" fill="#010A13"/>
<path d="M60.5136 35.2067V33.6238H62.888V35.2067H60.5136Z" fill="#010A13"/>
<path d="M62.8161 35.2067V33.6238H65.1905V35.2067H62.8161Z" fill="#010A13"/>
<path d="M65.1185 35.2067V33.6238H67.4929V35.2067H65.1185Z" fill="#010A13"/>
<path d="M67.421 35.2067V33.6238H69.7954V35.2067H67.421Z" fill="#010A13"/>
<path d="M69.7234 35.2067V33.6238H72.0979V35.2067H69.7234Z" fill="#010A13"/>
<path d="M72.0259 35.2067V33.6238H74.4003V35.2067H72.0259Z" fill="#010A13"/>
<path d="M74.3284 35.2067V33.6238H76.7028V35.2067H74.3284Z" fill="#010A13"/>
<path d="M76.6308 35.2067V33.6238H79.0052V35.2067H76.6308Z" fill="#010A13"/>
<path d="M78.9333 35.2067V33.6238H81.3077V35.2067H78.9333Z" fill="#010A13"/>
<path d="M37.4746 41.3466V39.7637H39.849V41.3466H37.4746Z" fill="#010A13"/>
<path d="M39.7771 41.3466V39.7637H42.1515V41.3466H39.7771Z" fill="#010A13"/>
<path d="M42.0795 41.3466V39.7637H44.4539V41.3466H42.0795Z" fill="#010A13"/>
<path d="M44.382 41.3466V39.7637H46.7564V41.3466H44.382Z" fill="#010A13"/>
<path d="M46.6845 41.3466V39.7637H49.0589V41.3466H46.6845Z" fill="#010A13"/>
<path d="M48.9869 41.3466V39.7637H51.3613V41.3466H48.9869Z" fill="#010A13"/>
<path d="M55.9087 41.3466V39.7637H58.2831V41.3466H55.9087Z" fill="#010A13"/>
<path d="M58.2111 41.3466V39.7637H60.5856V41.3466H58.2111Z" fill="#010A13"/>
<path d="M60.5136 41.3466V39.7637H62.888V41.3466H60.5136Z" fill="#010A13"/>
<path d="M67.4354 41.3466V39.7637H69.8098V41.3466H67.4354Z" fill="#010A13"/>
<path d="M69.7378 41.3466V39.7637H72.1123V41.3466H69.7378Z" fill="#010A13"/>
<path d="M72.0403 41.3466V39.7637H74.4147V41.3466H72.0403Z" fill="#010A13"/>
<path d="M74.3428 41.3466V39.7637H76.7172V41.3466H74.3428Z" fill="#010A13"/>
<path d="M76.6452 41.3466V39.7637H79.0196V41.3466H76.6452Z" fill="#010A13"/>
<path d="M78.9477 41.3466V39.7637H81.3221V41.3466H78.9477Z" fill="#010A13"/>
<path d="M81.2501 41.3466V39.7637H83.6246V41.3466H81.2501Z" fill="#010A13"/>
<path d="M37.4746 47.4865V45.9036H39.849V47.4865H37.4746Z" fill="#010A13"/>
<path d="M39.7771 47.4865V45.9036H42.1515V47.4865H39.7771Z" fill="#010A13"/>
<path d="M42.0795 47.4865V45.9036H44.4539V47.4865H42.0795Z" fill="#010A13"/>
<path d="M44.382 47.4865V45.9036H46.7564V47.4865H44.382Z" fill="#010A13"/>
<path d="M51.3038 47.4865V45.9036H53.6782V47.4865H51.3038Z" fill="#010A13"/>
<path d="M53.6062 47.4865V45.9036H55.9806V47.4865H53.6062Z" fill="#010A13"/>
<path d="M55.9087 47.4865V45.9036H58.2831V47.4865H55.9087Z" fill="#010A13"/>
<path d="M58.2111 47.4865V45.9036H60.5856V47.4865H58.2111Z" fill="#010A13"/>
<path d="M60.5136 47.4865V45.9036H62.888V47.4865H60.5136Z" fill="#010A13"/>
<path d="M62.8161 47.4865V45.9036H65.1905V47.4865H62.8161Z" fill="#010A13"/>
<path d="M65.1185 47.4865V45.9036H67.4929V47.4865H65.1185Z" fill="#010A13"/>
<path d="M67.421 47.4865V45.9036H69.7954V47.4865H67.421Z" fill="#010A13"/>
<path d="M69.7234 47.4865V45.9036H72.0979V47.4865H69.7234Z" fill="#010A13"/>
<path d="M37.4746 53.6264V52.0435H39.849V53.6264H37.4746Z" fill="#010A13"/>
<path d="M39.7771 53.6264V52.0435H42.1515V53.6264H39.7771Z" fill="#010A13"/>
<path d="M42.0795 53.6264V52.0435H44.4539V53.6264H42.0795Z" fill="#010A13"/>
<path d="M44.382 53.6264V52.0435H46.7564V53.6264H44.382Z" fill="#010A13"/>
<path d="M46.6845 53.6264V52.0435H49.0589V53.6264H46.6845Z" fill="#010A13"/>
<path d="M48.9869 53.6264V52.0435H51.3613V53.6264H48.9869Z" fill="#010A13"/>
<path d="M51.2894 53.6264V52.0435H53.6638V53.6264H51.2894Z" fill="#010A13"/>
<path d="M53.5918 53.6264V52.0435H55.9662V53.6264H53.5918Z" fill="#010A13"/>
<path d="M55.8943 53.6264V52.0435H58.2687V53.6264H55.8943Z" fill="#010A13"/>
<path d="M58.1968 53.6264V52.0435H60.5712V53.6264H58.1968Z" fill="#010A13"/>
<path d="M60.4992 53.6264V52.0435H62.8736V53.6264H60.4992Z" fill="#010A13"/>
<path d="M67.421 53.6264V52.0435H69.7954V53.6264H67.421Z" fill="#010A13"/>
<path d="M69.7234 53.6264V52.0435H72.0979V53.6264H69.7234Z" fill="#010A13"/>
<path d="M72.0259 53.6264V52.0435H74.4003V53.6264H72.0259Z" fill="#010A13"/>
<path d="M74.3284 53.6264V52.0435H76.7028V53.6264H74.3284Z" fill="#010A13"/>
<path d="M76.6308 53.6264V52.0435H79.0052V53.6264H76.6308Z" fill="#010A13"/>
<path d="M37.4746 59.7663V58.1834H39.849V59.7663H37.4746Z" fill="#010A13"/>
<path d="M39.7771 59.7663V58.1834H42.1515V59.7663H39.7771Z" fill="#010A13"/>
<path d="M42.0795 59.7663V58.1834H44.4539V59.7663H42.0795Z" fill="#010A13"/>
<path d="M44.382 59.7663V58.1834H46.7564V59.7663H44.382Z" fill="#010A13"/>
<path d="M46.6845 59.7663V58.1834H49.0589V59.7663H46.6845Z" fill="#010A13"/>
<path d="M48.9869 59.7663V58.1834H51.3613V59.7663H48.9869Z" fill="#010A13"/>
<path d="M51.2894 59.7663V58.1834H53.6638V59.7663H51.2894Z" fill="#010A13"/>
<path d="M53.5918 59.7663V58.1834H55.9662V59.7663H53.5918Z" fill="#010A13"/>
<path d="M55.8943 59.7663V58.1834H58.2687V59.7663H55.8943Z" fill="#010A13"/>
<path d="M58.1968 59.7663V58.1834H60.5712V59.7663H58.1968Z" fill="#010A13"/>
<path d="M60.4992 59.7663V58.1834H62.8736V59.7663H60.4992Z" fill="#010A13"/>
<path d="M67.421 59.7663V58.1834H69.7954V59.7663H67.421Z" fill="#010A13"/>
<path d="M69.7234 59.7663V58.1834H72.0979V59.7663H69.7234Z" fill="#010A13"/>
<path d="M72.0259 59.7663V58.1834H74.4003V59.7663H72.0259Z" fill="#010A13"/>
<path d="M74.3284 59.7663V58.1834H76.7028V59.7663H74.3284Z" fill="#010A13"/>
<path d="M76.6308 59.7663V58.1834H79.0052V59.7663H76.6308Z" fill="#010A13"/>
<path d="M37.4746 65.9062V64.3233H39.849V65.9062H37.4746Z" fill="#010A13"/>
<path d="M39.7771 65.9062V64.3233H42.1515V65.9062H39.7771Z" fill="#010A13"/>
<path d="M42.0795 65.9062V64.3233H44.4539V65.9062H42.0795Z" fill="#010A13"/>
<path d="M49.0013 65.9062V64.3233H51.3757V65.9062H49.0013Z" fill="#010A13"/>
<path d="M51.3038 65.9062V64.3233H53.6782V65.9062H51.3038Z" fill="#010A13"/>
<path d="M53.6062 65.9062V64.3233H55.9806V65.9062H53.6062Z" fill="#010A13"/>
<path d="M55.9087 65.9062V64.3233H58.2831V65.9062H55.9087Z" fill="#010A13"/>
<path d="M58.2111 65.9062V64.3233H60.5856V65.9062H58.2111Z" fill="#010A13"/>
<path d="M65.1329 65.9062V64.3233H67.5073V65.9062H65.1329Z" fill="#010A13"/>
<path d="M67.4354 65.9062V64.3233H69.8098V65.9062H67.4354Z" fill="#010A13"/>
<path d="M69.7378 65.9062V64.3233H72.1123V65.9062H69.7378Z" fill="#010A13"/>
<path d="M72.0403 65.9062V64.3233H74.4147V65.9062H72.0403Z" fill="#010A13"/>
<path d="M74.3428 65.9062V64.3233H76.7172V65.9062H74.3428Z" fill="#010A13"/>
<path d="M76.6452 65.9062V64.3233H79.0196V65.9062H76.6452Z" fill="#010A13"/>
<path d="M37.4746 72.0461V70.4632H39.849V72.0461H37.4746Z" fill="#010A13"/>
<path d="M39.7771 72.0461V70.4632H42.1515V72.0461H39.7771Z" fill="#010A13"/>
<path d="M42.0795 72.0461V70.4632H44.4539V72.0461H42.0795Z" fill="#010A13"/>
<path d="M44.382 72.0461V70.4632H46.7564V72.0461H44.382Z" fill="#010A13"/>
<path d="M46.6845 72.0461V70.4632H49.0589V72.0461H46.6845Z" fill="#010A13"/>
<path d="M48.9869 72.0461V70.4632H51.3613V72.0461H48.9869Z" fill="#010A13"/>
<path d="M51.2894 72.0461V70.4632H53.6638V72.0461H51.2894Z" fill="#010A13"/>
<path d="M53.5918 72.0461V70.4632H55.9662V72.0461H53.5918Z" fill="#010A13"/>
<path d="M55.8943 72.0461V70.4632H58.2687V72.0461H55.8943Z" fill="#010A13"/>
<path d="M58.1968 72.0461V70.4632H60.5712V72.0461H58.1968Z" fill="#010A13"/>
<path d="M65.1185 72.0461V70.4632H67.4929V72.0461H65.1185Z" fill="#010A13"/>
<path d="M67.421 72.0461V70.4632H69.7954V72.0461H67.421Z" fill="#010A13"/>
<path d="M69.7234 72.0461V70.4632H72.0979V72.0461H69.7234Z" fill="#010A13"/>
<path d="M72.0259 72.0461V70.4632H74.4003V72.0461H72.0259Z" fill="#010A13"/>
<path d="M74.3284 72.0461V70.4632H76.7028V72.0461H74.3284Z" fill="#010A13"/>
<path d="M37.4746 78.186V76.6031H39.849V78.186H37.4746Z" fill="#010A13"/>
<path d="M39.7771 78.186V76.6031H42.1515V78.186H39.7771Z" fill="#010A13"/>
<path d="M46.6988 78.186V76.6031H49.0733V78.186H46.6988Z" fill="#010A13"/>
<path d="M49.0013 78.186V76.6031H51.3757V78.186H49.0013Z" fill="#010A13"/>
<path d="M51.3038 78.186V76.6031H53.6782V78.186H51.3038Z" fill="#010A13"/>
<path d="M53.6062 78.186V76.6031H55.9806V78.186H53.6062Z" fill="#010A13"/>
<path d="M60.528 78.186V76.6031H62.9024V78.186H60.528Z" fill="#010A13"/>
<path d="M62.8305 78.186V76.6031H65.2049V78.186H62.8305Z" fill="#010A13"/>
<path d="M65.1329 78.186V76.6031H67.5073V78.186H65.1329Z" fill="#010A13"/>
<path d="M72.0547 78.186V76.6031H74.4291V78.186H72.0547Z" fill="#010A13"/>
<path d="M74.3572 78.186V76.6031H76.7316V78.186H74.3572Z" fill="#010A13"/>
<path d="M37.4746 84.3259V82.7429H39.849V84.3259H37.4746Z" fill="#010A13"/>
<path d="M39.7771 84.3259V82.7429H42.1515V84.3259H39.7771Z" fill="#010A13"/>
<path d="M42.0795 84.3259V82.7429H44.4539V84.3259H42.0795Z" fill="#010A13"/>
<path d="M44.382 84.3259V82.7429H46.7564V84.3259H44.382Z" fill="#010A13"/>
<path d="M46.6845 84.3259V82.7429H49.0589V84.3259H46.6845Z" fill="#010A13"/>
<path d="M53.6062 84.3259V82.7429H55.9806V84.3259H53.6062Z" fill="#010A13"/>
<path d="M55.9087 84.3259V82.7429H58.2831V84.3259H55.9087Z" fill="#010A13"/>
<path d="M58.2111 84.3259V82.7429H60.5856V84.3259H58.2111Z" fill="#010A13"/>
<path d="M60.5136 84.3259V82.7429H62.888V84.3259H60.5136Z" fill="#010A13"/>
<path d="M62.8161 84.3259V82.7429H65.1905V84.3259H62.8161Z" fill="#010A13"/>
<path d="M65.1185 84.3259V82.7429H67.4929V84.3259H65.1185Z" fill="#010A13"/>
<path d="M67.421 84.3259V82.7429H69.7954V84.3259H67.421Z" fill="#010A13"/>
<path d="M74.3428 84.3259V82.7429H76.7172V84.3259H74.3428Z" fill="#010A13"/>
<path d="M76.6452 84.3259V82.7429H79.0196V84.3259H76.6452Z" fill="#010A13"/>
<path d="M37.4746 90.4658V88.8828H39.849V90.4658H37.4746Z" fill="#010A13"/>
<path d="M39.7771 90.4658V88.8828H42.1515V90.4658H39.7771Z" fill="#010A13"/>
<path d="M42.0795 90.4658V88.8828H44.4539V90.4658H42.0795Z" fill="#010A13"/>
<path d="M44.382 90.4658V88.8828H46.7564V90.4658H44.382Z" fill="#010A13"/>
<path d="M51.3038 90.4658V88.8828H53.6782V90.4658H51.3038Z" fill="#010A13"/>
<path d="M53.6062 90.4658V88.8828H55.9806V90.4658H53.6062Z" fill="#010A13"/>
<path d="M55.9087 90.4658V88.8828H58.2831V90.4658H55.9087Z" fill="#010A13"/>
<path d="M58.2111 90.4658V88.8828H60.5856V90.4658H58.2111Z" fill="#010A13"/>
<path d="M60.5136 90.4658V88.8828H62.888V90.4658H60.5136Z" fill="#010A13"/>
<path d="M62.8161 90.4658V88.8828H65.1905V90.4658H62.8161Z" fill="#010A13"/>
<path d="M71.8727 69.7455L100.812 43.9877V80.6055C100.812 88.6136 94.3198 95.1055 86.3117 95.1055H35.5459C27.5378 95.1055 21.0459 88.6136 21.0459 80.6055V43.9877L49.9849 69.7455L50.4113 70.125H50.9822H70.8754H71.4463L71.8727 69.7455Z" fill="white"/>
<path d="M71.8727 69.7455L100.812 43.9877V80.6055C100.812 88.6136 94.3198 95.1055 86.3117 95.1055H35.5459C27.5378 95.1055 21.0459 88.6136 21.0459 80.6055V43.9877L49.9849 69.7455L50.4113 70.125H50.9822H70.8754H71.4463L71.8727 69.7455Z" fill="#FFCB12" fill-opacity="0.4"/>
<path d="M71.8727 69.7455L100.812 43.9877V80.6055C100.812 88.6136 94.3198 95.1055 86.3117 95.1055H35.5459C27.5378 95.1055 21.0459 88.6136 21.0459 80.6055V43.9877L49.9849 69.7455L50.4113 70.125H50.9822H70.8754H71.4463L71.8727 69.7455Z" stroke="#010A13" stroke-width="3"/>
<path d="M51.553 70.125L23.4873 95.1055H98.3703L70.3046 70.125H51.553Z" fill="#FFCB12" fill-opacity="0.4" stroke="#010A13" stroke-width="3"/>
<path d="M75.9316 14.5024L91.6614 31.1405" stroke="black" stroke-width="3"/>
</g>
</g>
<defs>
<filter id="filter0_i_77_16560" x="19.5459" y="13.8398" width="82.7656" height="82.7656" filterUnits="userSpaceOnUse" color-interpolation-filters="sRGB">
<feFlood flood-opacity="0" result="BackgroundImageFix"/>
<feBlend mode="normal" in="SourceGraphic" in2="BackgroundImageFix" result="shape"/>
<feColorMatrix in="SourceAlpha" type="matrix" values="0 0 0 0 0 0 0 0 0 0 0 0 0 0 0 0 0 0 127 0" result="hardAlpha"/>
<feOffset dy="-24"/>
<feComposite in2="hardAlpha" operator="arithmetic" k2="-1" k3="1"/>
<feColorMatrix type="matrix" values="0 0 0 0 0 0 0 0 0 0 0 0 0 0 0 0 0 0 0.15 0"/>
<feBlend mode="normal" in2="shape" result="effect1_innerShadow_77_16560"/>
</filter>
</defs>
</svg>
