<svg width="50" height="49" viewBox="0 0 50 49" fill="none" xmlns="http://www.w3.org/2000/svg">
<path fill-rule="evenodd" clip-rule="evenodd" d="M28.8318 5.27898C28.8318 5.96874 28.288 6.51067 27.5956 6.51067C26.9033 6.51067 26.3591 5.96877 26.3591 5.27932V1.73169C26.3591 1.04193 26.9033 0.499664 27.5956 0.5C28.2879 0.5 28.8318 1.04191 28.8318 1.73169V5.27898ZM33.2336 11.2065C36.8435 11.2065 39.7118 13.7193 40.5028 17.661L40.5024 17.6611C41.5901 23.031 38.3268 30.2742 28.6838 34.265C28.387 34.3637 28.1395 34.4128 27.8924 34.4128C27.6453 34.4128 27.3979 34.3637 27.1508 34.265C17.4589 30.4221 14.1951 23.1793 15.2335 17.7102C15.9752 13.7686 18.8435 11.2065 22.5028 11.2065C24.2335 11.2065 26.1127 11.7975 27.8928 12.9801C29.6729 11.7976 31.5028 11.2065 33.2336 11.2065ZM17.6064 18.1042C16.7661 22.5878 19.5847 28.5001 27.8431 31.8507L27.8426 31.8511C36.1011 28.4513 38.9197 22.4895 38.0793 18.1046C37.5354 15.3455 35.7055 13.6211 33.2331 13.6211C31.7992 13.6211 30.1671 14.2121 28.5847 15.3947C28.1395 15.7395 27.5462 15.7395 27.101 15.3947C25.5186 14.2121 23.8865 13.5715 22.4526 13.5715C19.9802 13.5715 18.1503 15.2959 17.6064 18.1042ZM39.0878 11.186C39.2532 11.3323 39.4314 11.4308 39.6225 11.4818C40.0525 11.5966 40.4985 11.4608 40.8396 11.1435L43.624 8.21409C44.1119 7.7324 44.0652 6.95455 43.5814 6.46834C43.098 5.98221 42.3173 6.02868 41.8293 6.5107L39.0449 9.44013C38.605 9.93464 38.5916 10.7473 39.0878 11.186ZM15.8757 11.4818C16.0667 11.4308 16.245 11.3323 16.4104 11.186C16.9066 10.7473 16.8932 9.93464 16.4533 9.44013L13.6689 6.5107C13.1809 6.02869 12.4002 5.98221 11.9167 6.46834C11.433 6.95455 11.3863 7.7324 11.8742 8.21409L14.6586 11.1435C14.9997 11.4608 15.4457 11.5966 15.8757 11.4818ZM11.4486 22.9874C11.9147 22.9712 12.3269 22.7529 12.5493 22.3691C12.6482 22.1985 12.7043 22.0033 12.7174 21.7833C12.7143 21.0989 12.1957 20.516 11.5085 20.5189L7.46068 20.4091C6.77382 20.4123 6.18871 20.9289 6.19166 21.6136C6.19481 22.298 6.71336 22.8809 7.40056 22.878L11.4486 22.9874ZM42.8922 22.3691C43.1147 22.7529 43.5269 22.9712 43.9929 22.9874L48.041 22.878C48.7282 22.8809 49.2467 22.298 49.2499 21.6136C49.2528 20.9289 48.6677 20.4123 47.9809 20.4091L43.933 20.5189C43.2458 20.516 42.7273 21.0989 42.7241 21.7833C42.7372 22.0033 42.7934 22.1985 42.8922 22.3691Z" fill="#6558F5"/>
<path d="M1.97709 47.0879H7.10044C7.50203 47.0879 7.82756 46.7636 7.82756 46.3635V44.9634H10.0262C10.2858 44.9627 10.5427 45.0186 10.7786 45.1271C10.8226 45.1479 10.8686 45.1641 10.9159 45.1752L24.5734 48.3577C25.8722 48.6602 27.2372 48.4773 28.4095 47.8434L42.9653 39.9729C43.3091 39.7867 43.5646 39.4717 43.6759 39.0976C43.7871 38.7234 43.7448 38.3206 43.5582 37.9774C43.0106 36.9687 42.0928 36.2098 40.9965 35.8596C39.9002 35.509 38.7107 35.5945 37.6759 36.0977L31.6368 39.0249C31.4279 38.5274 31.0763 38.1024 30.626 37.8033C30.1758 37.5042 29.6468 37.3442 29.1056 37.3435H23.2098L21.5571 35.3557C20.328 33.8771 18.5532 32.9539 16.6328 32.7939C14.7127 32.6339 12.8086 33.251 11.3503 34.5059L10.8172 34.9649C10.4886 35.2472 10.0694 35.4028 9.63574 35.4028H7.82726V34.0027C7.82726 33.6026 7.50172 33.2786 7.10013 33.2786H1.97679C1.57519 33.2786 1.25 33.6026 1.25 34.0027V46.3636C1.25 46.5555 1.3264 46.7398 1.46296 46.8758C1.59919 47.0116 1.7841 47.088 1.97679 47.088L1.97709 47.0879ZM9.63403 36.8516V36.8512C10.4169 36.8516 11.1738 36.571 11.7664 36.0614L12.2995 35.6024V35.602C13.4621 34.6014 14.9799 34.1093 16.5105 34.2366C18.0414 34.3636 19.4565 35.0995 20.4365 36.2783L22.3072 38.5286V38.5282C22.4455 38.6943 22.6506 38.7906 22.867 38.7906H29.1059C29.4524 38.7839 29.7871 38.9163 30.0345 39.1581C30.2819 39.3999 30.4215 39.7307 30.4215 40.0759C30.4215 40.4215 30.2819 40.7522 30.0345 40.994C29.787 41.2358 29.4524 41.3682 29.1059 41.3615H21.0128C20.6112 41.3615 20.286 41.6858 20.286 42.0859C20.286 42.4857 20.6112 42.8101 21.0128 42.8101H29.1059C29.7506 42.8091 30.3742 42.5821 30.8677 42.1691C31.3613 41.7559 31.6933 41.1829 31.8058 40.5505L38.3128 37.3977C39.0118 37.0555 39.8177 36.9999 40.5577 37.2424C41.2976 37.4849 41.9128 38.0066 42.2719 38.6954L27.7161 46.5659C26.8575 47.0304 25.8572 47.1644 24.9056 46.9428L11.313 43.7775C10.9066 43.603 10.4685 43.5131 10.026 43.5137H7.82745V36.8534L9.63403 36.8516ZM2.70419 34.727H6.3736V45.6393H2.70419V34.727Z" fill="#6558F5" stroke="#6558F5"/>
</svg>
