<svg width="49" height="49" viewBox="0 0 49 49" fill="none" xmlns="http://www.w3.org/2000/svg">
<path fill-rule="evenodd" clip-rule="evenodd" d="M24.25 2.92424C12.334 2.92424 2.67424 12.584 2.67424 24.5C2.67424 36.416 12.334 46.0758 24.25 46.0758C36.166 46.0758 45.8258 36.416 45.8258 24.5C45.8258 12.584 36.166 2.92424 24.25 2.92424ZM0.25 24.5C0.25 11.2451 10.9951 0.5 24.25 0.5C37.5049 0.5 48.25 11.2451 48.25 24.5C48.25 37.7549 37.5049 48.5 24.25 48.5C10.9951 48.5 0.25 37.7549 0.25 24.5ZM6.12842 24.5C6.12842 23.8306 6.6711 23.2879 7.34054 23.2879H41.1587C41.8282 23.2879 42.3708 23.8306 42.3708 24.5C42.3708 34.5028 34.2524 42.6212 24.2496 42.6212C14.2469 42.6212 6.12842 34.5028 6.12842 24.5ZM10.183 31.4697C12.7519 36.6403 18.0884 40.197 24.2496 40.197C30.4108 40.197 35.7473 36.6403 38.3162 31.4697H10.183ZM9.22186 29.0454C8.89897 27.9778 8.68684 26.8622 8.59885 25.7122H39.9004C39.8124 26.8622 39.6003 27.9778 39.2774 29.0454H9.22186ZM16.3701 15.6516C14.6155 15.6516 13.1581 17.109 13.1581 18.8636C13.1581 19.533 12.6154 20.0757 11.946 20.0757C11.2766 20.0757 10.7339 19.533 10.7339 18.8636C10.7339 15.7701 13.2766 13.2274 16.3701 13.2274C19.4636 13.2274 22.0064 15.7701 22.0064 18.8636C22.0064 19.533 21.4637 20.0757 20.7942 20.0757C20.1248 20.0757 19.5821 19.533 19.5821 18.8636C19.5821 17.109 18.1248 15.6516 16.3701 15.6516ZM28.9169 18.8636C28.9169 17.109 30.3743 15.6516 32.1289 15.6516C33.8835 15.6516 35.3409 17.109 35.3409 18.8636C35.3409 19.533 35.8836 20.0757 36.553 20.0757C37.2225 20.0757 37.7652 19.533 37.7652 18.8636C37.7652 15.7701 35.2224 13.2274 32.1289 13.2274C29.0354 13.2274 26.4927 15.7701 26.4927 18.8636C26.4927 19.533 27.0354 20.0757 27.7048 20.0757C28.3742 20.0757 28.9169 19.533 28.9169 18.8636Z" fill="#6558F5"/>
</svg>
