<svg width="188" height="16" viewBox="0 0 188 16" fill="none" xmlns="http://www.w3.org/2000/svg">
<path d="M15.376 10.9845V14.3208C15.376 15.2482 14.5908 16 13.6223 16H10.1379C9.16933 16 8.38409 15.2482 8.38409 14.3208V10.9845C8.38409 10.0571 9.16933 9.3053 10.1379 9.3053H13.6223C14.5908 9.3053 15.376 10.0571 15.376 10.9845Z" fill="#FCDA69"/>
<path d="M6.99199 10.9845V14.3208C6.99199 15.2482 6.20675 16 5.23822 16H1.7538C0.785263 16 3.05176e-05 15.2482 3.05176e-05 14.3208V10.9845C3.05176e-05 10.0571 0.785263 9.3053 1.7538 9.3053H5.23822C6.20675 9.3053 6.99199 10.0571 6.99199 10.9845Z" fill="#FCDA69"/>
<path d="M1.75377 7.97231C0.784409 7.96915 -0.00164879 7.21493 2.59721e-06 6.28677V2.9568C2.59721e-06 2.03023 0.786061 1.27758 1.75377 1.276H5.23654C6.2059 1.276 6.99031 2.02864 6.99196 2.9568V6.28677C6.99196 7.21651 6.20755 7.96915 5.23654 7.97231H1.75377Z" fill="#FCDA69"/>
<path d="M10.1395 7.97231C9.1685 7.96915 8.38409 7.21651 8.38409 6.28677V2.9568C8.38409 2.02864 9.17015 1.27758 10.1395 1.276H13.6223C14.5916 1.276 15.376 2.02864 15.376 2.9568V6.28677C15.376 7.21493 14.5916 7.96915 13.6223 7.97231H10.1395Z" fill="#FCDA69"/>
<path d="M27.4691 1.49426C29.1337 1.49426 30.4416 1.87849 31.3928 2.64695C32.344 3.4154 32.8196 4.44791 32.8196 5.74132C32.8196 7.1217 32.344 8.17793 31.3928 8.9116C30.4416 9.64527 29.142 10.0105 27.4922 10.0105L27.1801 10.1813H24.0144V15.5826H20.9825V1.49426H27.4691ZM27.1124 7.94075C27.9744 7.94075 28.6168 7.77314 29.0396 7.43951C29.4623 7.10588 29.6754 6.58884 29.6754 5.89154C29.6754 5.19423 29.464 4.67877 29.0396 4.34356C28.6168 4.00993 27.9728 3.84232 27.1124 3.84232H24.0144V7.94075H27.1124ZM28.9174 8.56057L33.6882 15.5842H30.2335L26.2884 9.41599L28.919 8.56216L28.9174 8.56057Z" fill="#212121"/>
<path d="M36.1851 3.37266C35.546 3.37266 35.0704 3.24142 34.7583 2.97736C34.4462 2.71489 34.291 2.32591 34.291 1.81361C34.291 1.30131 34.4462 0.891781 34.7583 0.629305C35.0704 0.366828 35.546 0.234009 36.1851 0.234009C36.8242 0.234009 37.2998 0.365247 37.6119 0.629305C37.924 0.893362 38.0793 1.28708 38.0793 1.81361C38.0793 2.34015 37.9224 2.7133 37.6119 2.97736C37.2998 3.24142 36.8242 3.37266 36.1851 3.37266ZM37.7011 4.90957V15.5826H34.6477V4.90957H37.7011Z" fill="#212121"/>
<path d="M46.3708 15.796C45.6872 15.796 45.0662 15.6569 44.5097 15.3802C43.9532 15.1035 43.4925 14.7177 43.1275 14.2275C42.7626 13.7357 42.5149 13.1855 42.3811 12.5736L42.6932 12.1893L42.5149 15.5826H39.8181V0.235596H42.8716V7.92015L42.5809 7.47267C42.8187 6.67576 43.2728 6.01482 43.94 5.48671C44.6088 4.96017 45.4477 4.6977 46.4584 4.6977C47.3352 4.6977 48.1296 4.91906 48.843 5.35863C49.5563 5.79978 50.1162 6.43384 50.5257 7.25763C50.9336 8.08301 51.1384 9.08706 51.1384 10.2682C51.1384 11.4494 50.9336 12.4107 50.5257 13.2361C50.1162 14.0615 49.5531 14.6955 48.8314 15.1351C48.1097 15.5762 47.289 15.796 46.3692 15.796H46.3708ZM45.456 13.5555C46.2734 13.5555 46.9158 13.274 47.3848 12.7127C47.8521 12.1514 48.0866 11.3292 48.0866 10.2477C48.0866 9.16612 47.8554 8.34391 47.3963 7.78259C46.9356 7.22127 46.2965 6.93981 45.4791 6.93981C44.944 6.93981 44.4833 7.0758 44.0969 7.3446C43.7105 7.61498 43.4099 7.99921 43.1936 8.49728C42.9772 8.99535 42.8699 9.58672 42.8699 10.2698C42.8699 10.9529 42.9772 11.5616 43.1936 12.0518C43.4083 12.5435 43.7138 12.9167 44.1068 13.1728C44.4998 13.429 44.9506 13.5571 45.456 13.5571V13.5555Z" fill="#212121"/>
<path d="M59.2318 15.796C58.5482 15.796 57.9272 15.6569 57.3707 15.3802C56.8142 15.1035 56.3535 14.7177 55.9885 14.2275C55.6236 13.7357 55.3758 13.1855 55.2421 12.5736L55.5542 12.1893L55.3758 15.5826H52.6791V0.235596H55.7325V7.92015L55.4419 7.47267C55.6797 6.67576 56.1338 6.01482 56.801 5.48671C57.4698 4.96017 58.3087 4.6977 59.3193 4.6977C60.1962 4.6977 60.9905 4.91906 61.7039 5.35863C62.4173 5.79978 62.9772 6.43384 63.3867 7.25763C63.7946 8.08301 63.9994 9.08706 63.9994 10.2682C63.9994 11.4494 63.7946 12.4107 63.3867 13.2361C62.9772 14.0615 62.414 14.6955 61.6924 15.1351C60.9707 15.5762 60.15 15.796 59.2302 15.796H59.2318ZM58.317 13.5555C59.1344 13.5555 59.7768 13.274 60.2458 12.7127C60.7131 12.1514 60.9476 11.3292 60.9476 10.2477C60.9476 9.16612 60.7164 8.34391 60.2573 7.78259C59.7966 7.22127 59.1575 6.93981 58.3401 6.93981C57.805 6.93981 57.3443 7.0758 56.9579 7.3446C56.5714 7.61498 56.2709 7.99921 56.0546 8.49728C55.8382 8.99535 55.7309 9.58672 55.7309 10.2698C55.7309 10.9529 55.8382 11.5616 56.0546 12.0518C56.2692 12.5435 56.5747 12.9167 56.9678 13.1728C57.3608 13.429 57.8116 13.5571 58.317 13.5571V13.5555Z" fill="#212121"/>
<path d="M70.6214 4.69617C71.751 4.69617 72.7418 4.91753 73.5972 5.3571C74.451 5.79825 75.1198 6.43231 75.6036 7.2561C76.0858 8.08148 76.3286 9.07763 76.3286 10.2445C76.3286 11.4115 76.0875 12.3902 75.6036 13.2219C75.1214 14.0552 74.4526 14.6908 73.5972 15.132C72.7418 15.5731 71.751 15.7929 70.6214 15.7929C69.4919 15.7929 68.5192 15.5731 67.6572 15.132C66.7952 14.6908 66.1231 14.0536 65.6408 13.2219C65.157 12.3902 64.9159 11.3972 64.9159 10.2445C64.9159 9.09186 65.157 8.08148 65.6408 7.2561C66.1231 6.43073 66.7968 5.79825 67.6572 5.3571C68.5192 4.91595 69.5067 4.69617 70.6214 4.69617ZM70.6214 6.87346C70.0566 6.87346 69.5777 6.99837 69.1831 7.24662C68.79 7.49644 68.4878 7.8696 68.2798 8.36768C68.0717 8.86575 67.9676 9.4919 67.9676 10.2461C67.9676 11.0003 68.0717 11.6265 68.2798 12.1246C68.4878 12.6226 68.7884 12.9958 69.1831 13.2456C69.5761 13.4955 70.0566 13.6188 70.6214 13.6188C71.1862 13.6188 71.6436 13.4939 72.0367 13.2456C72.4297 12.9974 72.7319 12.6226 72.94 12.1246C73.148 11.6265 73.2521 11.0003 73.2521 10.2461C73.2521 9.4919 73.148 8.86575 72.94 8.36768C72.7319 7.8696 72.4313 7.49644 72.0367 7.24662C71.6436 6.99837 71.1713 6.87346 70.6214 6.87346Z" fill="#212121"/>
<path d="M77.7769 15.5826V4.90963H80.5181L80.6965 8.11153L80.3183 7.76999C80.4967 7.07269 80.7791 6.49714 81.1655 6.04176C81.5519 5.58638 82.0242 5.24801 82.5807 5.02822C83.1372 4.80844 83.7516 4.69775 84.4187 4.69775C85.1916 4.69775 85.8785 4.84006 86.4813 5.12467C87.0824 5.40929 87.558 5.83937 87.9081 6.4165C88.2565 6.99205 88.4316 7.71465 88.4316 8.58272V15.5842H85.3782V9.41443C85.3782 8.50366 85.1916 7.87435 84.82 7.52491C84.4484 7.17705 83.9646 7.00154 83.3717 7.00154C82.9556 7.00154 82.551 7.09799 82.1563 7.28931C81.7616 7.48064 81.4429 7.79055 81.1985 8.21747C80.9541 8.64439 80.8303 9.21361 80.8303 9.92515V15.5826H77.7769Z" fill="#212121"/>
<path d="M94.0033 15.5826V1.49426H104.323V3.09442H95.7852V7.64032H102.427V9.24048H95.7852V13.9793H104.656V15.5794H94.0017L94.0033 15.5826Z" fill="#212121"/>
<path d="M110.699 15.796C109.777 15.796 108.93 15.5762 108.157 15.1351C107.384 14.6939 106.769 14.0567 106.308 13.225C105.847 12.3933 105.616 11.4003 105.616 10.2477C105.616 9.09497 105.86 8.06404 106.352 7.23708C106.843 6.4117 107.489 5.78239 108.291 5.34756C109.094 4.91432 109.956 4.69612 110.877 4.69612C111.799 4.69612 112.596 4.92381 113.273 5.37919C113.949 5.83457 114.4 6.44016 114.622 7.19439L114.4 7.34302V0H116.183V15.5826H114.622L114.466 13.0005L114.71 12.8724C114.606 13.4986 114.357 14.0283 113.964 14.4631C113.571 14.8979 113.087 15.2284 112.515 15.4561C111.944 15.6838 111.338 15.7976 110.699 15.7976V15.796ZM110.877 14.3018C111.591 14.3018 112.21 14.131 112.738 13.7895C113.265 13.448 113.675 12.961 113.964 12.3269C114.253 11.6944 114.398 10.9497 114.398 10.0959C114.398 9.24202 114.253 8.58741 113.964 8.00395C113.675 7.4205 113.273 6.97302 112.76 6.65995C112.248 6.34687 111.648 6.19033 110.965 6.19033C109.835 6.19033 108.958 6.56033 108.334 7.30033C107.71 8.04032 107.398 9.02223 107.398 10.2461C107.398 11.4699 107.702 12.4518 108.311 13.1918C108.92 13.9318 109.774 14.3018 110.874 14.3018H110.877Z" fill="#212121"/>
<path d="M123.025 15.796C122.311 15.796 121.639 15.6679 121.008 15.4118C120.376 15.1556 119.864 14.7398 119.471 14.1626C119.076 13.5871 118.88 12.836 118.88 11.911V4.90955H120.663V11.4636C120.663 12.5451 120.908 13.2882 121.398 13.6946C121.889 14.0994 122.579 14.3034 123.471 14.3034C123.887 14.3034 124.295 14.2354 124.696 14.101C125.097 13.9666 125.457 13.7531 125.778 13.4606C126.096 13.1697 126.349 12.7949 126.536 12.3395C126.721 11.8841 126.815 11.3434 126.815 10.7172V4.90955H128.598V15.5825H127.038L126.925 13.9602C126.539 14.6006 126.015 15.0671 125.353 15.358C124.691 15.6489 123.915 15.796 123.023 15.796H123.025Z" fill="#212121"/>
<path d="M136.019 4.69617C136.792 4.69617 137.471 4.81001 138.059 5.0377C138.645 5.26539 139.154 5.5927 139.586 6.01962C140.017 6.44654 140.366 6.95252 140.633 7.53597L138.939 8.30443C138.701 7.62136 138.341 7.09799 137.857 6.73589C137.375 6.37222 136.746 6.19197 135.975 6.19197C135.204 6.19197 134.593 6.35167 134.058 6.67265C133.523 6.99205 133.113 7.45533 132.832 8.05935C132.55 8.66494 132.41 9.39386 132.41 10.2477C132.41 11.1015 132.55 11.8131 132.832 12.425C133.115 13.0369 133.523 13.5034 134.058 13.8228C134.593 14.1437 135.232 14.3034 135.975 14.3034C136.555 14.3034 137.057 14.2181 137.479 14.0473C137.902 13.8765 138.252 13.6283 138.526 13.2994C138.8 12.9721 138.99 12.5736 139.094 12.104L140.744 12.659C140.491 13.3136 140.146 13.8765 139.707 14.3461C139.268 14.8157 138.741 15.1747 138.125 15.4245C137.507 15.6727 136.806 15.7977 136.018 15.7977C134.977 15.7977 134.049 15.5779 133.232 15.1367C132.414 14.6956 131.775 14.0584 131.315 13.2267C130.854 12.395 130.624 11.402 130.624 10.2493C130.624 9.0966 130.854 8.10362 131.315 7.27192C131.775 6.43863 132.414 5.803 133.232 5.36185C134.049 4.92069 134.977 4.70091 136.018 4.70091L136.019 4.69617Z" fill="#212121"/>
<path d="M149.505 8.68866C149.505 7.89174 149.282 7.27666 148.836 6.84183C148.39 6.40859 147.757 6.19039 146.942 6.19039C146.169 6.19039 145.515 6.35009 144.98 6.67107C144.445 6.99047 144.052 7.50751 143.799 8.21904L142.351 7.36521C142.648 6.56829 143.198 5.92475 144.001 5.433C144.803 4.94125 145.799 4.69617 146.988 4.69617C147.791 4.69617 148.519 4.82741 149.173 5.09146C149.827 5.35552 150.344 5.7524 150.722 6.28684C151.1 6.82128 151.29 7.50751 151.29 8.34712V13.5128C151.29 14.0252 151.572 14.2813 152.137 14.2813C152.419 14.2813 152.695 14.2465 152.961 14.1754L152.872 15.5194C152.575 15.6617 152.188 15.7328 151.713 15.7328C151.282 15.7328 150.895 15.6538 150.553 15.4972C150.211 15.3407 149.944 15.1019 149.751 14.7825C149.557 14.4631 149.462 14.0599 149.462 13.5761V13.3626L149.908 13.4275C149.729 13.9825 149.424 14.4347 148.994 14.7825C148.57 15.1283 148.077 15.3895 147.546 15.551C147.011 15.7139 146.483 15.7961 145.964 15.7961C145.31 15.7961 144.701 15.6901 144.136 15.4767C143.571 15.2632 143.122 14.9391 142.787 14.5058C142.453 14.0726 142.285 13.535 142.285 12.8946C142.285 12.0977 142.564 11.4399 143.12 10.9197C143.679 10.3995 144.453 10.0485 145.451 9.86348L149.863 9.03019V10.439L146.275 11.1442C145.546 11.2865 145.003 11.4858 144.648 11.7419C144.291 11.9981 144.113 12.3538 144.113 12.8092C144.113 13.2646 144.295 13.6093 144.659 13.8876C145.024 14.1659 145.54 14.3034 146.208 14.3034C146.64 14.3034 147.052 14.2497 147.445 14.1437C147.838 14.0378 148.192 13.8734 148.504 13.652C148.816 13.4322 149.062 13.1539 149.24 12.8203C149.419 12.4867 149.508 12.0914 149.508 11.636V8.69024L149.505 8.68866Z" fill="#212121"/>
<path d="M160.739 4.90955V6.38321H152.67V4.90955H160.739ZM156.682 1.87842V12.6368C156.682 13.1633 156.838 13.5539 157.149 13.81C157.461 14.0662 157.862 14.1943 158.353 14.1943C158.784 14.1943 159.155 14.1231 159.467 13.9808C159.78 13.8385 160.062 13.6472 160.315 13.4052L160.939 14.8346C160.597 15.1335 160.192 15.3691 159.723 15.5398C159.256 15.7106 158.716 15.796 158.107 15.796C157.542 15.796 157.015 15.6995 156.525 15.5082C156.034 15.3169 155.644 15.0101 155.354 14.5911C155.065 14.1721 154.911 13.6203 154.896 12.9372V2.34803L156.68 1.87842H156.682Z" fill="#212121"/>
<path d="M163.168 2.86035C162.767 2.86035 162.443 2.74334 162.199 2.50774C161.954 2.27215 161.831 1.96381 161.831 1.57959C161.831 1.19536 161.953 0.885447 162.199 0.651432C162.445 0.415836 162.767 0.298828 163.168 0.298828C163.569 0.298828 163.893 0.415836 164.138 0.651432C164.382 0.887029 164.506 1.19536 164.506 1.57959C164.506 1.96381 164.384 2.27373 164.138 2.50774C163.891 2.74176 163.569 2.86035 163.168 2.86035ZM164.06 4.90956V15.5826H162.276V4.90956H164.06Z" fill="#212121"/>
<path d="M171.26 4.69617C172.315 4.69617 173.247 4.91753 174.057 5.3571C174.867 5.79825 175.502 6.43547 175.963 7.26717C176.424 8.09888 176.655 9.09186 176.655 10.2445C176.655 11.3972 176.424 12.3902 175.963 13.2219C175.502 14.0552 174.867 14.6908 174.057 15.132C173.247 15.5731 172.315 15.7929 171.26 15.7929C170.205 15.7929 169.29 15.5731 168.474 15.132C167.657 14.6908 167.018 14.0536 166.557 13.2219C166.096 12.3902 165.865 11.3972 165.865 10.2445C165.865 9.09186 166.094 8.09888 166.557 7.26717C167.018 6.43389 167.657 5.79825 168.474 5.3571C169.292 4.91595 170.22 4.69617 171.26 4.69617ZM171.26 6.16825C170.502 6.16825 169.856 6.33269 169.321 6.66C168.786 6.9873 168.373 7.45375 168.084 8.05776C167.794 8.66336 167.65 9.39228 167.65 10.2461C167.65 11.1 167.795 11.8115 168.084 12.4234C168.373 13.0353 168.786 13.5049 169.321 13.8322C169.856 14.1596 170.502 14.324 171.26 14.324C172.018 14.324 172.664 14.1611 173.199 13.8322C173.734 13.5049 174.147 13.0353 174.436 12.4234C174.726 11.8115 174.87 11.0857 174.87 10.2461C174.87 9.40651 174.725 8.66336 174.436 8.05776C174.147 7.45375 173.734 6.9873 173.199 6.66C172.664 6.33269 172.018 6.16825 171.26 6.16825Z" fill="#212121"/>
<path d="M178.235 15.5826V4.90963H179.796L179.953 7.30038L179.662 7.06478C179.9 6.49555 180.22 6.03701 180.62 5.68757C181.021 5.33971 181.485 5.08672 182.014 4.93018C182.541 4.77364 183.087 4.69617 183.652 4.69617C184.455 4.69617 185.183 4.84164 185.837 5.13415C186.491 5.42667 187.014 5.87099 187.409 6.46867C187.802 7.06636 188 7.82849 188 8.7519V15.5826H186.217V9.34959C186.217 8.16845 185.952 7.34623 185.426 6.88453C184.897 6.42282 184.248 6.19039 183.475 6.19039C182.94 6.19039 182.405 6.31214 181.87 6.55248C181.335 6.7944 180.892 7.18653 180.544 7.7273C180.194 8.26806 180.021 8.99382 180.021 9.90459V15.5826H178.237H178.235Z" fill="#212121"/>
</svg>
