<svg width="16" height="15" viewBox="0 0 16 15" fill="none" xmlns="http://www.w3.org/2000/svg">
<path d="M15.376 9.98439V13.3207C15.376 14.2481 14.5908 14.9999 13.6222 14.9999H10.1378C9.16927 14.9999 8.38403 14.2481 8.38403 13.3207V9.98439C8.38403 9.05703 9.16927 8.30518 10.1378 8.30518H13.6222C14.5908 8.30518 15.376 9.05703 15.376 9.98439Z" fill="#FCDA69"/>
<path d="M6.99195 9.98439V13.3207C6.99195 14.2481 6.20672 14.9999 5.23819 14.9999H1.75377C0.785232 14.9999 0 14.2481 0 13.3207V9.98439C0 9.05703 0.785232 8.30518 1.75377 8.30518H5.23819C6.20672 8.30518 6.99195 9.05703 6.99195 9.98439Z" fill="#FCDA69"/>
<path d="M1.75377 6.97219C0.784409 6.96903 -0.00164879 6.21481 2.59721e-06 5.28665V1.95668C2.59721e-06 1.0301 0.786061 0.27746 1.75377 0.275879H5.23654C6.2059 0.275879 6.9903 1.02852 6.99196 1.95668V5.28665C6.99196 6.21639 6.20755 6.96903 5.23654 6.97219H1.75377Z" fill="#FCDA69"/>
<path d="M10.1395 6.97219C9.16844 6.96903 8.38403 6.21639 8.38403 5.28665V1.95668C8.38403 1.02852 9.17009 0.27746 10.1395 0.275879H13.6222C14.5916 0.275879 15.376 1.02852 15.376 1.95668V5.28665C15.376 6.21481 14.5916 6.96903 13.6222 6.97219H10.1395Z" fill="#FCDA69"/>
</svg>
